<?xml version="1.0" encoding="utf-8"?>
<!-- Generator: Adobe Illustrator 22.1.0, SVG Export Plug-In . SVG Version: 6.00 Build 0)  -->
<svg version="1.1" id="Layer_1" xmlns="http://www.w3.org/2000/svg" xmlns:xlink="http://www.w3.org/1999/xlink" x="0px" y="0px"
	 viewBox="0 0 145 33" style="enable-background:new 0 0 145 33;" xml:space="preserve">
<style type="text/css">
	.st0{fill:#EC2027;}
	.st1{fill:#FFFFFF;}
</style>
<g>
	<g>
		<polygon points="15.4,16.5 32.7,16.5 24.1,1 		"/>
		<polygon class="st0" points="19.8,24.2 28.4,24.2 24.1,16.5 		"/>
		<polygon points="24.1,32 41.4,32 32.7,16.5 		"/>
		<polygon points="6.8,32 24.1,32 15.4,16.5 		"/>
	</g>
	<g>
		<g>
			<path d="M48.7,17.9c-0.8,0-1.4-0.3-2-1c-0.5-0.7-0.8-1.4-0.8-2.4V6.9c0-0.9,0.3-1.7,0.8-2.4c0.6-0.7,1.2-1,2-1c0.8,0,1.4,0.3,2,1
				s0.8,1.4,0.8,2.4v1.6h-1.8V6.8c0-0.3-0.1-0.6-0.3-0.9c-0.2-0.2-0.4-0.4-0.7-0.4S48.2,5.7,48,6s-0.3,0.5-0.3,0.9v7.7
				c0,0.3,0.1,0.6,0.3,0.9c0.2,0.2,0.4,0.4,0.7,0.4s0.5-0.1,0.7-0.4c0.2-0.2,0.3-0.5,0.3-0.9v-1.9h1.8v2c0,0.9-0.3,1.7-0.8,2.4
				C50.2,17.5,49.5,17.9,48.7,17.9z"/>
			<path d="M56.4,11.8v5.9h-1.8v-14h1.8v5.9h2.1V3.7h1.8v14h-1.8v-5.9H56.4z"/>
			<path d="M65.2,17.7h-1.8v-14h1.8V17.7z"/>
			<path d="M70.1,5.8h-1.9V3.7h5.5v2.1h-1.9v11.9h-1.8V5.8z"/>
			<path d="M79.6,3.7c1,0,1.7,0.3,2.2,1C82.2,5.2,82.4,6,82.4,7v2c0,1-0.3,1.8-0.9,2.5l1.3,6.1h-1.9l-1.1-5.3c0,0-0.1,0-0.2,0h-1
				v5.3h-1.8v-14H79.6z M80.7,7.1c0-0.8-0.3-1.2-1-1.2h-1.1v4.5h1.1c0.3,0,0.5-0.1,0.7-0.4s0.3-0.5,0.3-0.9V7.1z"/>
			<path d="M88.1,14.5l-0.4,3.2h-1.8l2-14h2.4l2,14h-1.9l-0.4-3.2H88.1z M89,6.9l-0.7,5.5h1.3L89,6.9z"/>
			<path d="M100.1,17.7h-4.8v-14h1.8v11.9h3.1V17.7z"/>
			<path d="M102.9,17.7v-14h5.1v2.1h-3.3v3.8h2.4v2.1h-2.4v3.8h3.3v2.1H102.9z"/>
			<path d="M112.6,13.2v4.4h-1.8v-14h1.8v5l2.2-5h1.9l-2.4,5.7l2.9,8.3H115l-1.9-5.7L112.6,13.2z"/>
			<path d="M121.8,11.8v5.9h-1.8v-14h1.8v5.9h2.1V3.7h1.8v14H124v-5.9H121.8z"/>
			<path d="M131.1,14.5l-0.4,3.2h-1.8l2-14h2.4l2,14h-1.9l-0.4-3.2H131.1z M132,6.9l-0.7,5.5h1.3L132,6.9z"/>
		</g>
		<g>
			<path d="M49.4,27c0,0.5-0.1,1-0.4,1.4c-0.2,0.3-0.4,0.4-0.7,0.5C48.2,29,48,29,47.8,29c-0.4,0-0.7-0.1-0.9-0.3
				c-0.2-0.2-0.4-0.4-0.5-0.7c-0.1-0.3-0.2-0.7-0.2-1.1l0.9-0.1c0,0.4,0.1,0.8,0.3,1c0.1,0.2,0.3,0.2,0.4,0.2c0.2,0,0.4-0.1,0.5-0.4
				c0.1-0.1,0.1-0.3,0.1-0.5c0-0.3-0.1-0.6-0.4-0.9c-0.2-0.2-0.5-0.5-0.9-1c-0.3-0.4-0.6-0.7-0.7-1c-0.1-0.3-0.2-0.7-0.2-1.1
				c0-0.7,0.2-1.2,0.6-1.6c0.2-0.2,0.5-0.3,0.9-0.3c0.3,0,0.6,0.1,0.9,0.3c0.2,0.1,0.3,0.3,0.5,0.6c0.1,0.3,0.2,0.6,0.2,0.9
				l-0.9,0.2c0-0.3-0.1-0.6-0.2-0.7c-0.1-0.1-0.2-0.2-0.4-0.2c-0.2,0-0.3,0.1-0.4,0.3c-0.1,0.2-0.1,0.3-0.1,0.6
				c0,0.4,0.1,0.7,0.4,1.1c0.1,0.1,0.2,0.3,0.4,0.5c0.2,0.2,0.4,0.4,0.4,0.5c0.2,0.3,0.4,0.6,0.6,0.8c0.1,0.1,0.1,0.3,0.1,0.4
				C49.3,26.5,49.4,26.8,49.4,27z"/>
			<path d="M53.7,22.4h-1v-1.2h3v1.2h-1v6.5h-1V22.4z"/>
			<path d="M60.6,29c-0.4,0-0.8-0.2-1.1-0.5c-0.3-0.4-0.4-0.8-0.4-1.3v-5.9h1v5.9c0,0.2,0.1,0.3,0.2,0.5s0.2,0.2,0.4,0.2
				s0.3-0.1,0.4-0.2c0.1-0.1,0.2-0.3,0.2-0.5v-5.9h1v5.9c0,0.5-0.2,0.9-0.5,1.3C61.4,28.8,61.1,29,60.6,29z"/>
			<path d="M68.7,27.1c0,0.5-0.1,0.9-0.4,1.3c-0.3,0.4-0.7,0.5-1.1,0.5h-1.5v-7.7h1.5c0.4,0,0.8,0.2,1.1,0.5
				c0.3,0.4,0.4,0.8,0.4,1.3V27.1z M66.6,27.7h0.6c0.2,0,0.3-0.1,0.4-0.2c0.1-0.1,0.2-0.3,0.2-0.5v-4c0-0.2-0.1-0.3-0.2-0.5
				c-0.1-0.1-0.2-0.2-0.4-0.2h-0.6V27.7z"/>
			<path d="M73.2,28.9h-1v-7.7h1V28.9z"/>
			<path d="M78.2,21.1c0.4,0,0.8,0.2,1.1,0.5c0.3,0.4,0.5,0.8,0.5,1.3v4.2c0,0.5-0.2,0.9-0.5,1.3c-0.3,0.4-0.7,0.5-1.1,0.5
				c-0.4,0-0.8-0.2-1.1-0.5c-0.3-0.4-0.4-0.8-0.4-1.3V23c0-0.5,0.2-0.9,0.5-1.3C77.4,21.3,77.7,21.1,78.2,21.1z M78.7,22.9
				c0-0.2-0.1-0.3-0.2-0.5c-0.1-0.1-0.2-0.2-0.4-0.2s-0.3,0.1-0.4,0.2c-0.1,0.1-0.2,0.3-0.2,0.5v4.2c0,0.2,0.1,0.3,0.2,0.5
				c0.1,0.1,0.2,0.2,0.4,0.2s0.3-0.1,0.4-0.2c0.1-0.1,0.2-0.3,0.2-0.5V22.9z"/>
			<path d="M86.3,27c0,0.5-0.1,1-0.3,1.4c-0.2,0.3-0.4,0.4-0.7,0.5C85.2,29,85,29,84.8,29c-0.4,0-0.7-0.1-0.9-0.3
				c-0.2-0.2-0.4-0.4-0.5-0.7c-0.1-0.3-0.2-0.7-0.2-1.1l0.9-0.1c0,0.4,0.1,0.8,0.3,1c0.1,0.2,0.3,0.2,0.4,0.2c0.2,0,0.4-0.1,0.5-0.4
				c0.1-0.1,0.1-0.3,0.1-0.5c0-0.3-0.1-0.6-0.4-0.9c-0.2-0.2-0.5-0.5-0.9-1c-0.3-0.4-0.6-0.7-0.7-1c-0.1-0.3-0.2-0.7-0.2-1.1
				c0-0.7,0.2-1.2,0.6-1.6c0.2-0.2,0.5-0.3,0.9-0.3c0.3,0,0.6,0.1,0.9,0.3c0.2,0.1,0.3,0.3,0.5,0.6c0.1,0.3,0.2,0.6,0.2,0.9
				l-0.9,0.2c0-0.3-0.1-0.6-0.2-0.7c-0.1-0.1-0.2-0.2-0.4-0.2c-0.2,0-0.3,0.1-0.4,0.3c-0.1,0.2-0.1,0.3-0.1,0.6
				c0,0.4,0.1,0.7,0.4,1.1c0.1,0.1,0.2,0.3,0.4,0.5c0.2,0.2,0.4,0.4,0.4,0.5c0.2,0.3,0.4,0.6,0.6,0.8c0.1,0.1,0.1,0.3,0.1,0.4
				C86.3,26.5,86.3,26.8,86.3,27z"/>
			<path d="M94.4,21.2c0.5,0,0.9,0.2,1.1,0.5c0.3,0.3,0.4,0.8,0.4,1.3v1.1c0,0.5-0.1,0.9-0.4,1.3c-0.3,0.4-0.7,0.5-1.1,0.5h-0.6v2.9
				h-1v-7.7H94.4z M95,23.1c0-0.2-0.1-0.4-0.2-0.5s-0.2-0.2-0.4-0.2h-0.6v2.5h0.6c0.2,0,0.3-0.1,0.4-0.2c0.1-0.1,0.2-0.3,0.2-0.5
				V23.1z"/>
			<path d="M100.2,28.9l-1.2-7.7h1l0.8,6l0.8-6h1l-1.2,7.7H100.2z"/>
			<path d="M107,22.4h-1v-1.2h3v1.2h-1v6.5h-1V22.4z"/>
			<path d="M112.3,27.7h1v1.2h-1V27.7z"/>
			<path d="M119.2,28.9h-2.7v-7.7h1v6.5h1.7V28.9z"/>
			<path d="M122.6,22.4h-1v-1.2h3v1.2h-1v6.5h-1V22.4z"/>
			<path d="M131,27.1c0,0.5-0.1,0.9-0.4,1.3c-0.3,0.4-0.7,0.5-1.1,0.5H128v-7.7h1.5c0.4,0,0.8,0.2,1.1,0.5s0.4,0.8,0.4,1.3V27.1z
				 M128.9,27.7h0.6c0.2,0,0.3-0.1,0.4-0.2c0.1-0.1,0.2-0.3,0.2-0.5v-4c0-0.2-0.1-0.3-0.2-0.5c-0.1-0.1-0.2-0.2-0.4-0.2h-0.6V27.7z"
				/>
			<path d="M134.3,27.7h1v1.2h-1V27.7z"/>
		</g>
	</g>
</g>
</svg>
